<svg xmlns="http://www.w3.org/2000/svg" version="1.1" xmlns:xlink="http://www.w3.org/1999/xlink" xmlns:svgjs="http://svgjs.dev/svgjs" viewBox="0 0 9.964064273757323 3.126826560987297"><g transform="matrix(1,0,0,1,2.8981499266995914,0.5003122139295657)"><path d="M99 0Q88 0 81 7Q74 14 74 25L74 675Q74 686 81 693Q88 700 99 700L552 700Q563 700 570 693Q577 686 577 675L577 595Q577 585 570 578Q563 571 552 571L228 571L228 414L530 414Q541 414 548 407Q555 400 555 389L555 315Q555 305 548 298Q541 291 530 291L228 291L228 129L560 129Q571 129 578 122Q585 115 585 104L585 25Q585 14 578 7Q571 0 560 0Z" fill="#343432" transform="matrix(0.0015,0,0,-0.0015,0,1.0965)" fill-rule="nonzero"></path><path d="M99 0Q88 0 81 7Q74 14 74 25L74 675Q74 686 81 693Q88 700 99 700L210 700Q221 700 228 693Q235 686 235 675L235 134L545 134Q556 134 563 127Q570 120 570 109L570 25Q570 14 563 7Q556 0 545 0Z" fill="#343432" transform="matrix(0.0015,0,0,-0.0015,0.96,1.0965)" fill-rule="nonzero"></path><path d="M99 0Q88 0 81 7Q74 14 74 25L74 675Q74 686 81 693Q88 700 99 700L552 700Q563 700 570 693Q577 686 577 675L577 595Q577 585 570 578Q563 571 552 571L228 571L228 414L530 414Q541 414 548 407Q555 400 555 389L555 315Q555 305 548 298Q541 291 530 291L228 291L228 129L560 129Q571 129 578 122Q585 115 585 104L585 25Q585 14 578 7Q571 0 560 0Z" fill="#343432" transform="matrix(0.0015,0,0,-0.0015,1.857,1.0965)" fill-rule="nonzero"></path><path d="M276 0Q260 0 250.5 8.5Q241 17 237 29L27 670Q26 675 26 679Q26 687 32 693.5Q38 700 47 700L152 700Q167 700 175.5 691.5Q184 683 186 676L342 187L497 676Q500 683 508 691.5Q516 700 531 700L636 700Q645 700 651 693.5Q657 687 657 679Q657 675 656 670L446 29Q443 17 433.5 8.5Q424 0 407 0Z" fill="#343432" transform="matrix(0.0015,0,0,-0.0015,2.8095,1.0965)" fill-rule="nonzero"></path><path d="M33 0Q24 0 18 6.5Q12 13 12 21Q12 26 13 30L251 673Q254 684 263 692Q272 700 288 700L416 700Q432 700 441 692Q450 684 453 673L691 30Q692 26 692 21Q692 13 686 6.5Q680 0 671 0L567 0Q552 0 545 7Q538 14 536 20L493 132L211 132L168 20Q166 14 159 7Q152 0 137 0ZM248 261L455 261L352 549Z" fill="#343432" transform="matrix(0.0015,0,0,-0.0015,3.768,1.0965)" fill-rule="nonzero"></path><path d="M253 0Q242 0 235 7Q228 14 228 25L228 561L46 561Q36 561 29 568Q22 575 22 585L22 675Q22 686 29 693Q36 700 46 700L570 700Q581 700 588 693Q595 686 595 675L595 585Q595 575 588 568Q581 561 570 561L389 561L389 25Q389 14 382 7Q375 0 364 0Z" fill="#343432" transform="matrix(0.0015,0,0,-0.0015,4.731,1.0965)" fill-rule="nonzero"></path><path d="M99 0Q88 0 81 7Q74 14 74 25L74 675Q74 686 81 693Q88 700 99 700L552 700Q563 700 570 693Q577 686 577 675L577 595Q577 585 570 578Q563 571 552 571L228 571L228 414L530 414Q541 414 548 407Q555 400 555 389L555 315Q555 305 548 298Q541 291 530 291L228 291L228 129L560 129Q571 129 578 122Q585 115 585 104L585 25Q585 14 578 7Q571 0 560 0Z" fill="#343432" transform="matrix(0.0015,0,0,-0.0015,5.6715,1.0965)" fill-rule="nonzero"></path><path d="M110 0Q99 0 93 6.5Q87 13 87 23L87 676Q87 687 93 693.5Q99 700 110 700L523 700Q534 700 540 693.5Q546 687 546 676L546 638Q546 627 540 621Q534 615 523 615L183 615L183 396L501 396Q512 396 518 389.5Q524 383 524 372L524 335Q524 325 518 318.5Q512 312 501 312L183 312L183 85L531 85Q542 85 548 79Q554 73 554 62L554 23Q554 13 548 6.5Q542 0 531 0Z" fill="#343432" transform="matrix(0.00075,0,0,-0.00075,0,2.0856)" fill-rule="nonzero"></path><path d="M110 0Q99 0 93 6.5Q87 13 87 23L87 676Q87 687 93 693.5Q99 700 110 700L156 700Q168 700 174 694.5Q180 689 181 686L513 176L513 676Q513 687 519 693.5Q525 700 536 700L584 700Q595 700 601.5 693.5Q608 687 608 676L608 24Q608 14 601.5 7Q595 0 585 0L537 0Q526 0 520.5 6Q515 12 513 14L182 519L182 23Q182 13 175.5 6.5Q169 0 158 0Z" fill="#343432" transform="matrix(0.00075,0,0,-0.00075,0.46199999999999997,2.0856)" fill-rule="nonzero"></path><path d="M342 -10Q253 -10 191.5 23Q130 56 97.5 116Q65 176 61 257Q60 301 60 350.5Q60 400 61 445Q65 526 97.5 585.5Q130 645 192 677.5Q254 710 342 710Q412 710 464 690Q516 670 549.5 639.5Q583 609 599.5 576Q616 543 617 518Q618 509 612 503.5Q606 498 596 498L537 498Q527 498 522.5 502Q518 506 514 516Q505 542 484.5 567Q464 592 429.5 608.5Q395 625 342 625Q262 625 213.5 582Q165 539 161 440Q158 351 161 262Q165 162 214 118.5Q263 75 342 75Q395 75 436.5 95Q478 115 502 155.5Q526 196 526 259L526 301L376 301Q366 301 359.5 307.5Q353 314 353 325L353 357Q353 368 359.5 374.5Q366 381 376 381L602 381Q613 381 619 374.5Q625 368 625 357L625 261Q625 179 591.5 118Q558 57 494 23.5Q430 -10 342 -10Z" fill="#343432" transform="matrix(0.00075,0,0,-0.00075,0.9907499999999999,2.0856)" fill-rule="nonzero"></path><path d="M110 0Q99 0 93 6.5Q87 13 87 23L87 677Q87 687 93 693.5Q99 700 110 700L163 700Q174 700 180 693.5Q186 687 186 677L186 23Q186 13 180 6.5Q174 0 163 0Z" fill="#343432" transform="matrix(0.00075,0,0,-0.00075,1.509,2.0856)" fill-rule="nonzero"></path><path d="M110 0Q99 0 93 6.5Q87 13 87 23L87 676Q87 687 93 693.5Q99 700 110 700L156 700Q168 700 174 694.5Q180 689 181 686L513 176L513 676Q513 687 519 693.5Q525 700 536 700L584 700Q595 700 601.5 693.5Q608 687 608 676L608 24Q608 14 601.5 7Q595 0 585 0L537 0Q526 0 520.5 6Q515 12 513 14L182 519L182 23Q182 13 175.5 6.5Q169 0 158 0Z" fill="#343432" transform="matrix(0.00075,0,0,-0.00075,1.72125,2.0856)" fill-rule="nonzero"></path><path d="M110 0Q99 0 93 6.5Q87 13 87 23L87 676Q87 687 93 693.5Q99 700 110 700L523 700Q534 700 540 693.5Q546 687 546 676L546 638Q546 627 540 621Q534 615 523 615L183 615L183 396L501 396Q512 396 518 389.5Q524 383 524 372L524 335Q524 325 518 318.5Q512 312 501 312L183 312L183 85L531 85Q542 85 548 79Q554 73 554 62L554 23Q554 13 548 6.5Q542 0 531 0Z" fill="#343432" transform="matrix(0.00075,0,0,-0.00075,2.25,2.0856)" fill-rule="nonzero"></path><g clip-path="url(&quot;#SvgjsClipPath1004&quot;)"><path d=" M -2.4026215375667164 0.3619023166697879 L -2.0426139815042212 0.15391208551707436 L -1.7010520422717867 0.35140739674923793 C -1.5305729510067643 0.4529585281859596 -1.3181626286350898 0.4529585281859596 -1.1476835373700744 0.35140739674923793 L -0.8061215981376364 0.15391208551707436 L -0.44611404207514127 0.3619023166697879 L -1.016019996548632 0.6910611687233903 C -1.2676434058221808 0.8408647402671896 -1.5810921738196733 0.8408647402671896 -1.832715583093222 0.6910611687233903 Z" fill="#d4d6c9" transform="matrix(1,0,0,1,0,0)" fill-rule="evenodd"></path><path d=" M -1.3779357198694022 2.1364978668718315 L -1.0182461916832892 1.928507635719118 L -1.0182461916832892 1.5341530690075516 C -1.020966102033686 1.3357251519410163 -0.9147590654425066 1.1517550322365295 -0.7415619392324331 1.0548850593024461 L -0.399999999999995 0.8577077759466647 L -0.399999999999995 0.44204534151761976 L -0.9695879265971072 0.7708861656948436 C -1.2252393534648185 0.9137965145288014 -1.3820027735461622 1.185324432177481 -1.3779357198694129 1.4781801627646196 Z" fill="#343432" transform="matrix(1,0,0,1,0,0)" fill-rule="evenodd"></path><path d=" M -2.448735579641859 0.44204534151761976 L -2.448735579641859 0.8577077759466647 L -2.107173640409421 1.0552030871788283 C -1.9340776979668846 1.1520185069574786 -1.8278868497646705 1.3358385269488942 -1.8304893879585649 1.534153069007555 L -1.8304893879585649 1.9285076357191215 L -1.4707998597724519 2.136497866871835 L -1.4707998597724519 1.477862134888241 C -1.4668502500524987 1.185119773270813 -1.623597463766032 0.9137420037340718 -1.879147653044761 0.7708861656948436 Z" fill="#343432" transform="matrix(1,0,0,1,0,0)" fill-rule="evenodd"></path><path d=" M -1.8982293256275682 0.08076567394960676 L -1.9179470539631467 0.09221467749929602 L -1.6552560280730262 0.23882552851061334 C -1.6193173310873945 0.2597694813274316 -1.5808398195253517 0.2760155417647425 -1.540765992576123 0.28716576572041674 C -1.5023166128303984 0.2976794218127665 -1.462638535328125 0.3030268716109177 -1.4227776504390306 0.3030671595394345 C -1.3829167655499397 0.3030268716109177 -1.3432386880476628 0.2976794218127665 -1.3047893083019453 0.2871657657204203 C -1.2650403841543714 0.2760958233085766 -1.2268815773019703 0.25995582377156623 -1.1912533564341778 0.23914355638699192 L -0.9298344420495752 0.08903439873549246 L -0.9330147208133788 0.08712623147721033 C -1.0782241599901141 -0.0012440700959075457 -1.2445348896037096 -0.04891834793758676 -1.414508925653145 -0.05089786687183562 C -1.5846255701478675 -0.051083960452071864 -1.7516751879779449 -0.005614833705422484 -1.8982293256275682 0.08076567394960321 Z" fill="#343432" transform="matrix(1,0,0,1,0,0)" fill-rule="evenodd"></path><path d=" M -0.4079506969095057 1.0183118535187141 L -0.4079506969095057 0.9954138464193321 L -0.6665073604066869 1.1496573664637744 C -0.7025472015734948 1.170221360568462 -0.7357893720736861 1.1953400424576692 -0.7654140299609615 1.2243939174131455 C -0.7938589168181771 1.2527867951329057 -0.8183547416108148 1.28487739529794 -0.838242413652047 1.319802280327231 C -0.8581736656448165 1.354284720908094 -0.873363863784828 1.391297457221075 -0.8834023720980468 1.4298399255548127 C -0.8937426190383739 1.4697175831312883 -0.8988737568722556 1.5107666858023379 -0.8986677101643039 1.551962630084848 L -0.8986677101643039 1.8537710847697468 L -0.8954874314004968 1.8518629175114647 C -0.7464439629035589 1.7701745752742326 -0.6220187021713386 1.650032267029708 -0.5351618474616195 1.503940420751423 C -0.45005139601565247 1.35637010035191 -0.40611866292496757 1.1886568917782157 -0.4079506969095057 1.0183118535187141 Z" fill="#d4d6c9" transform="matrix(1,0,0,1,0,0)" fill-rule="evenodd"></path><path d=" M -2.4407848827323484 1.0183118535187141 L -2.4407848827323484 0.9954138464193321 L -2.182228219235167 1.1496573664637744 C -2.1462954538452834 1.1703833856580061 -2.113072831440462 1.195487296478369 -2.083321549680896 1.2243939174131455 C -2.054876662823677 1.2527867951329057 -2.0303808380310393 1.28487739529794 -2.010493165989807 1.319802280327231 C -1.9906940979292003 1.3543495289666119 -1.9755113174718204 1.391344191207839 -1.9653332075438072 1.4298399255548127 C -1.9551564689926693 1.469748694328132 -1.9500279582721909 1.510776780091966 -1.9500678694775537 1.551962630084848 L -1.9500678694775537 1.8537710847697468 L -1.9532481482413573 1.8518629175114647 C -2.1016757930852563 1.7695887853429006 -2.225417753859009 1.6491407543146828 -2.3116655649219524 1.5029863371222838 C -2.397277614210587 1.35588350561137 -2.441866550936602 1.1885102554378406 -2.4407848827323484 1.0183118535187141 Z" fill="#d4d6c9" transform="matrix(1,0,0,1,0,0)" fill-rule="evenodd"></path></g></g><defs><clipPath id="SvgjsClipPath1004"><path d=" M -2.4487355796418595 -0.050897866871834285 h 2.0487355796418596 v 2.1873957337436685 h -2.0487355796418596 Z"></path></clipPath></defs></svg>